<?xml version="1.0" standalone="no"?>
<!DOCTYPE svg PUBLIC "-//W3C//DTD SVG 20010904//EN"
 "http://www.w3.org/TR/2001/REC-SVG-20010904/DTD/svg10.dtd">
<svg version="1.0" xmlns="http://www.w3.org/2000/svg"
 width="135.000000pt" height="135.000000pt" viewBox="0 0 135.000000 135.000000"
 preserveAspectRatio="xMidYMid meet">
<metadata>
Created by potrace 1.14, written by Peter Selinger 2001-2017
</metadata>
<g transform="translate(0.000000,135.000000) scale(0.100000,-0.100000)"
fill="#000000" stroke="none">
<path d="M308 1331 c-122 -39 -216 -122 -271 -239 l-32 -67 -2 -330 c-3 -320
-2 -332 20 -396 50 -145 157 -247 300 -285 73 -19 631 -19 704 0 146 39 263
153 307 300 19 61 22 615 5 696 -32 152 -151 278 -305 325 -36 11 -119 14
-358 14 -273 0 -318 -2 -368 -18z"/>
</g>
</svg>
